<?xml version="1.0" encoding="utf-8"?>
<!-- Generator: Adobe Illustrator 24.1.3, SVG Export Plug-In . SVG Version: 6.00 Build 0)  -->
<svg version="1.1" id="Layer_1" xmlns="http://www.w3.org/2000/svg" xmlns:xlink="http://www.w3.org/1999/xlink" x="0px" y="0px"
	 viewBox="0 0 313.8 25" style="enable-background:new 0 0 313.8 25;" xml:space="preserve">
<style type="text/css">
	.st0{fill:#AAB7C4;}
	.st1{opacity:0.5;fill:#AAB7C4;enable-background:new    ;}
	.st2{opacity:0.75;fill:#AAB7C4;enable-background:new    ;}
</style>
<path class="st0" d="M78,6l-2.8,13h-3.4l2.8-13H78z M92.1,14.4l1.8-4.9l1,4.9H92.1z M95.9,19H99L96.3,6h-2.9c-0.6,0-1.2,0.4-1.4,1
	l-5,12h3.5l0.7-1.9h4.3L95.9,19z M87.1,14.7c0-3.4-4.7-3.6-4.7-5.1c0.1-0.7,0.7-1.1,1.4-1.1c1.1-0.1,2.3,0.1,3.3,0.6l0.6-2.8
	c-1-0.4-2.1-0.6-3.1-0.6c-3.3,0-5.7,1.8-5.7,4.3c0,1.9,1.7,2.9,2.9,3.5c1.3,0.6,1.8,1,1.7,1.6c0,0.9-1,1.3-2,1.3
	c-1.2,0-2.4-0.3-3.5-0.8l-0.6,2.8c1.2,0.5,2.5,0.7,3.7,0.7C84.8,19.2,87.1,17.4,87.1,14.7 M73.2,6l-5.4,13h-3.6L61.5,8.6
	c0-0.5-0.4-0.9-0.8-1.1c-1-0.5-2.1-0.9-3.3-1.1L57.5,6h5.7c0.8,0,1.4,0.6,1.5,1.3l1.4,7.5L69.7,6H73.2z"/>
<path class="st0" d="M220.7,11.5v-1.3c0-0.5-0.5-1-1-1h-1.4v2.3h-1.5V5h3.7c0.9-0.1,1.8,0.5,1.9,1.4v0.5c0,0.6-0.3,1.2-0.9,1.5
	c0.5,0.3,0.8,0.9,0.7,1.5v1.6H220.7 M218.2,7.7h1.6c0.3,0.1,0.7-0.1,0.8-0.4c0.1-0.3-0.1-0.7-0.4-0.8h-2L218.2,7.7 M239.5,11.5
	l-2.4-4.4v4.4h-3l-0.5-1.4h-2.8l-0.5,1.4h-3.2c0,0-2-0.3-2-3.1c0-3.4,1.7-3.5,2.4-3.5h1.9v1.5h-1.5c-0.7,0.1-1.2,0.7-1.1,1.4v0.5
	c0,2.2,2.6,1.5,2.7,1.5l1.9-4.9h2.1l2.3,5.9V5h2.1l2.4,4.3V5h1.5v6.6L239.5,11.5 M231.5,8.5h1.5l-0.7-1.9L231.5,8.5 M208.8,11.5V7
	l-1.9,4.5h-1.2L203.8,7v4.5h-3l-0.5-1.4h-2.8l-0.5,1.4h-1.7l2.5-6.6h2.1l2.3,6V5h2.4l1.7,4.1L208,5h2.4v6.6L208.8,11.5 M198.1,8.5
	h1.5l-0.7-1.9L198.1,8.5 M211.2,11.5V5h4.7v1.5h-3.2v1h3.1V9h-3.1v1.1h3.2v1.4H211.2 M223,11.6V5h1.5v6.6H223 M226.3,20v-1.3
	c0-0.6-0.5-1-1.1-1h-1.6V20H222v-6.5h3.9c1-0.2,1.9,0.5,2,1.5v0.4c0,0.6-0.3,1.2-0.9,1.5c0.5,0.3,0.8,0.9,0.8,1.5V20H226.3
	 M223.7,16.2h1.7c0.3,0.1,0.7-0.1,0.8-0.4s-0.1-0.7-0.4-0.8c-0.1-0.1-0.3-0.1-0.4,0h-1.7L223.7,16.2 M215.6,20h-1.4l-1.7-1.9
	l-1.7,1.9h-6v-6.5h5.9l1.8,2.1l1.9-2.1h5.1c1-0.1,1.9,0.5,2,1.5v0.4c0,1.9-0.7,2.5-2.8,2.5h-1.6V20H215.6 M213.6,16.8l2,2.3v-4.5
	L213.6,16.8 M206.4,18.6h3.4l1.6-1.8l-1.6-1.8h-3.4v1h3.3v1.5h-3.3V18.6 M217.2,16.2h1.7c0.3,0.1,0.7-0.1,0.8-0.4s-0.1-0.7-0.4-0.8
	c-0.1-0.1-0.3-0.1-0.4,0h-1.7L217.2,16.2 M237.3,20h-2.9v-1.5h2.5c0,0,0.9,0.1,0.9-0.5s-1.4-0.5-1.4-0.5c-1.1,0.2-2-0.6-2.2-1.6
	v-0.3c-0.1-1,0.7-1.9,1.7-2h3.4V15h-2.5c0,0-0.9-0.2-0.9,0.5c0,0.5,1.2,0.5,1.2,0.5s2.5-0.2,2.5,1.8c0.1,1.1-0.6,2.1-1.8,2.3h-0.4
	L237.3,20 M228.7,20v-6.5h5V15h-3.4v1h3.3v1.5h-3.3v1.1h3.4V20H228.7 M242.9,20H240v-1.5h2.5c0,0,0.9,0.1,0.9-0.5s-1.4-0.5-1.4-0.5
	c-1.1,0.2-2-0.6-2.2-1.7v-0.3c-0.1-1,0.7-1.9,1.7-2h3.4V15h-2.5c0,0-0.9-0.2-0.9,0.5c0,0.5,1.2,0.5,1.2,0.5s2.5-0.2,2.5,1.8
	c0.1,1.1-0.6,2.1-1.8,2.3H243C243,20,243,20,242.9,20 M259.3,8h-2.5v8.9h2.5c1.1,0.1,2.2-0.3,3.1-1c1-0.9,1.6-2.1,1.6-3.4
	c0.1-2.4-1.8-4.4-4.2-4.5H259.3z M261.3,14.7c-0.6,0.5-1.5,0.8-2.3,0.7h-0.5V9.5h0.5c0.8-0.1,1.7,0.2,2.3,0.7
	c0.6,0.6,0.9,1.4,0.9,2.2C262.2,13.3,261.9,14.1,261.3,14.7z M264.7,16.9h1.7V8h-1.7V16.9z M270.5,11.4c-1-0.4-1.3-0.6-1.3-1.1
	c0.1-0.6,0.6-1.1,1.2-1c0.5,0,1,0.3,1.4,0.7l0.9-1.2c-0.7-0.6-1.6-1-2.5-1c-1.4-0.1-2.6,1-2.7,2.4v0.1c0,1.2,0.5,1.9,2.1,2.4
	c0.4,0.1,0.8,0.3,1.2,0.5c0.3,0.2,0.5,0.5,0.5,0.9c0,0.7-0.6,1.3-1.2,1.3H270c-0.8,0-1.5-0.5-1.8-1.2l-1.1,1.1
	c0.6,1.1,1.8,1.7,3,1.7c1.6,0.1,2.9-1.1,3-2.7V14C273,12.8,272.5,12.2,270.5,11.4z M273.6,12.5c0,2.5,2,4.6,4.5,4.6
	c0.8,0,1.5-0.2,2.2-0.5v-2c-0.5,0.6-1.2,1-2,1c-1.6,0-2.9-1.2-2.9-2.8v-0.2c-0.1-1.6,1.2-3,2.8-3.1c0.8,0,1.6,0.4,2.1,1v-2
	c-0.6-0.4-1.4-0.5-2.1-0.5C275.6,7.8,273.6,9.9,273.6,12.5z M293.9,14l-2.3-6h-1.8l3.7,9.1h0.9l3.7-9.1h-1.8L293.9,14L293.9,14z
	 M298.9,16.9h4.8v-1.5h-3.1V13h3v-1.5h-3v-2h3.1V8h-4.8V16.9z M310.4,10.6c0-1.7-1.1-2.6-3.1-2.6h-2.5v8.9h1.7v-3.6h0.2l2.3,3.6h2.1
	l-2.7-3.7C309.6,13,310.5,11.9,310.4,10.6L310.4,10.6z M307,12.1h-0.5V9.4h0.5c1.1,0,1.6,0.5,1.6,1.3
	C308.6,11.6,308.1,12.1,307,12.1z"/>
<path class="st1" d="M285.5,7.9c-2.5,0-4.6,2-4.6,4.6c0,2.5,2,4.6,4.6,4.7c2.6,0.1,4.6-2,4.7-4.6C290.1,10,288.1,7.9,285.5,7.9z"/>
<g>
	<path class="st0" d="M139.5,10c-0.6,0-1.4,0.2-1.8,0.9c-0.3-0.5-0.9-0.9-1.7-0.9c-0.5,0-1.1,0.1-1.5,0.7v-0.6h-1.1V15h1.1v-2.7
		c0-0.8,0.6-1.3,1.3-1.3c0.7,0,1.1,0.5,1.1,1.3V15h1.1v-2.7c0-0.8,0.6-1.3,1.3-1.3c0.7,0,1.1,0.5,1.1,1.3V15h1.1v-3
		C141.5,10.8,140.7,10,139.5,10z M146.4,10.8c-0.3-0.4-0.8-0.7-1.5-0.7c-1.4,0-2.4,1.1-2.4,2.6s1.1,2.6,2.4,2.6
		c0.7,0,1.2-0.3,1.5-0.7V15h1.1v-4.9h-1.1V10.8z M145,14.2c-0.9,0-1.5-0.7-1.5-1.6s0.6-1.6,1.5-1.6s1.5,0.7,1.5,1.6
		S145.9,14.2,145,14.2z M151.2,12.1l-0.5-0.1c-0.4-0.1-0.8-0.2-0.8-0.5s0.3-0.6,0.9-0.6c0.6,0,1.2,0.2,1.5,0.4l0.5-0.8
		c-0.5-0.3-1.2-0.5-2-0.5c-1.2,0-2,0.6-2,1.6c0,0.8,0.6,1.3,1.6,1.4l0.5,0.1c0.6,0.1,0.8,0.3,0.8,0.5c0,0.4-0.4,0.6-1.1,0.6
		c-0.8,0-1.3-0.2-1.6-0.5l-0.5,0.8c0.7,0.5,1.6,0.6,2.1,0.6c1.4,0,2.2-0.7,2.2-1.6C152.9,12.7,152.3,12.3,151.2,12.1z M156.6,14.2
		c-0.4,0-0.8-0.3-0.8-0.9v-2.1h1.9v-1h-1.9V8.7h-1.1v1.5h-1v1h1v2.1c0,1.3,0.6,1.9,1.7,1.9c0.6,0,1.1-0.2,1.5-0.5l-0.4-0.9
		C157.2,14,156.9,14.2,156.6,14.2z M161,10c-1.4,0-2.4,1-2.4,2.6s1,2.6,2.5,2.6c0.7,0,1.4-0.2,2-0.7l-0.5-0.8
		c-0.4,0.3-0.9,0.5-1.4,0.5c-0.7,0-1.3-0.4-1.4-1.2h3.6v-0.4C163.3,11.1,162.4,10,161,10z M159.7,12.2c0.1-0.7,0.5-1.2,1.3-1.2
		c0.7,0,1.1,0.4,1.2,1.2H159.7z M165.6,10.7v-0.6h-1.1V15h1.1v-2.7c0-0.8,0.5-1.3,1.2-1.3c0.3,0,0.6,0.1,0.8,0.2l0.3-1.1
		c-0.2-0.1-0.5-0.1-0.8-0.1C166.4,10,165.9,10.2,165.6,10.7z M170.6,11c0.5,0,0.8,0.2,1.2,0.5l0.7-0.7c-0.4-0.5-1.1-0.8-1.8-0.8
		c-1.5,0-2.6,1.1-2.6,2.6s1,2.6,2.6,2.6c0.7,0,1.4-0.3,1.8-0.8l-0.7-0.7c-0.3,0.3-0.7,0.5-1.2,0.5c-0.8,0-1.4-0.6-1.4-1.6
		C169.2,11.6,169.8,11,170.6,11z M177,10.8c-0.3-0.4-0.8-0.7-1.5-0.7c-1.4,0-2.4,1.1-2.4,2.6s1.1,2.6,2.4,2.6c0.7,0,1.2-0.3,1.5-0.7
		V15h1.1v-4.9H177V10.8z M175.6,14.2c-0.9,0-1.5-0.7-1.5-1.6s0.6-1.6,1.5-1.6c0.9,0,1.5,0.7,1.5,1.6S176.5,14.2,175.6,14.2z
		 M180.7,10.7v-0.6h-1.1V15h1.1v-2.7c0-0.8,0.5-1.3,1.2-1.3c0.3,0,0.6,0.1,0.8,0.2l0.3-1.1c-0.2-0.1-0.5-0.1-0.8-0.1
		C181.5,10,181,10.2,180.7,10.7z M187.1,7.7v3c-0.3-0.4-0.8-0.7-1.5-0.7c-1.4,0-2.4,1.1-2.4,2.6s1.1,2.6,2.4,2.6
		c0.7,0,1.2-0.3,1.5-0.7V15h1.1V7.7H187.1z M185.7,14.2c-0.9,0-1.5-0.7-1.5-1.6s0.6-1.6,1.5-1.6s1.5,0.7,1.5,1.6
		S186.6,14.2,185.7,14.2z M113.5,12.6c0-2.4,1.1-4.5,2.8-5.9c-1.3-1-2.9-1.6-4.6-1.6c-4.1-0.1-7.4,3.3-7.4,7.5s3.3,7.6,7.4,7.6
		c1.7,0,3.3-0.6,4.6-1.6C114.6,17.1,113.5,15,113.5,12.6z"/>
	<path class="st1" d="M120.9,5c-1.7,0-3.3,0.6-4.6,1.6c1.7,1.4,2.8,3.5,2.8,5.9s-1.1,4.5-2.8,5.9c1.3,1,2.9,1.6,4.6,1.6
		c4.1,0,7.4-3.4,7.4-7.5S125,5,120.9,5z"/>
	<path class="st2" d="M119.1,12.6c0-2.4-1.1-4.5-2.8-5.9c-1.7,1.4-3.8,3.5-3.8,5.9s2,4.5,3.8,5.9C118,17.1,119.1,15,119.1,12.6z"/>
</g>
<g id="aZ5boX.tif">
	<g>
		<path class="st0" d="M6.2,17.1c0-0.2,0.1-0.5,0.1-0.7c0.1-0.5,0.1-0.9,0.2-1.4c0,0,0,0,0,0c0.3,0.1,0.6,0.3,1,0.4
			c0.6,0.2,1.1,0.4,1.8,0.4c0.2,0,0.4,0,0.6-0.1c0.4-0.2,0.5-0.7,0.2-1c-0.3-0.2-0.6-0.4-1-0.5c-0.4-0.2-0.8-0.3-1.3-0.5
			C7.6,13.5,7.3,13.3,7,13c-0.4-0.4-0.6-0.9-0.6-1.4c-0.1-0.6,0-1.2,0.3-1.8c0.4-0.7,1-1.1,1.7-1.3c0.6-0.2,1.2-0.2,1.8-0.2
			c0.8,0,1.7,0.2,2.4,0.6c0.1,0,0.1,0.1,0.1,0.2c-0.1,0.7-0.2,1.3-0.3,2c0,0,0,0,0,0.1c-0.1,0-0.2-0.1-0.3-0.1
			c-0.6-0.3-1.2-0.5-1.9-0.5c-0.2,0-0.4,0-0.7,0c-0.2,0.1-0.3,0.2-0.4,0.4c0,0.2,0,0.4,0.2,0.5c0.1,0.1,0.3,0.2,0.5,0.3
			c0.4,0.2,0.8,0.3,1.2,0.5c0.5,0.2,0.9,0.4,1.3,0.7c0.4,0.4,0.7,0.9,0.8,1.4c0.1,0.6,0.1,1.2-0.1,1.7c-0.3,0.8-0.9,1.3-1.7,1.6
			c-0.6,0.2-1.3,0.3-2,0.2c-0.9,0-1.8-0.3-2.7-0.6C6.4,17.3,6.3,17.2,6.2,17.1C6.2,17.1,6.2,17.1,6.2,17.1z"/>
		<path class="st0" d="M27.5,4.5c0.1,0,0.3,0.1,0.4,0.1c0.6,0.3,1,1,0.9,1.6c-0.1,0.7-0.6,1.3-1.4,1.4c-0.9,0.1-1.6-0.5-1.7-1.3
			c-0.1-0.8,0.5-1.6,1.3-1.7c0,0,0,0,0.1,0C27.3,4.5,27.4,4.5,27.5,4.5z"/>
		<path class="st0" d="M30,8.5c0.9,0,1.7,0,2.6,0c0.1,0.3,0.1,0.6,0.2,0.9c0,0,0,0,0,0c0.1-0.1,0.1-0.1,0.2-0.2
			c0.5-0.4,1-0.8,1.7-0.9c0.9-0.1,1.7,0,2.4,0.7c0.4,0.4,0.6,0.8,0.8,1.3c0.2,0.7,0.3,1.4,0.3,2.2c0,0.8,0,1.5-0.2,2.3
			c-0.2,0.7-0.4,1.4-0.9,2c-0.6,0.6-1.3,1-2.1,1.1c-0.6,0.1-1.2,0-1.8-0.1c0,0-0.1,0-0.1,0c0,1,0,2,0,3c-1,0.2-2,0.3-3,0.5
			C30,17,30,12.7,30,8.5z M32.9,13.4c0,0.7,0,1.4,0,2.1c0,0.1,0,0.1,0.1,0.1c0.1,0,0.2,0.1,0.3,0.1c0.6,0.1,1.1-0.1,1.3-0.6
			c0.1-0.2,0.2-0.4,0.3-0.7c0.2-0.9,0.2-1.8,0.1-2.7c0-0.3-0.1-0.6-0.3-0.8c-0.2-0.3-0.5-0.4-0.8-0.4c-0.4,0.1-0.6,0.2-0.9,0.5
			c-0.1,0.1-0.1,0.1-0.1,0.2C32.9,12,32.9,12.7,32.9,13.4z"/>
		<path class="st0" d="M46.5,14.1c-1.6,0-3.2,0-4.9,0c-0.1,0.8,0.5,1.5,1.2,1.6c1,0.1,2,0,2.9-0.5c0.1,0,0.1-0.1,0.2-0.1
			c0,0,0,0,0,0c0,0.2,0.1,0.4,0.1,0.6c0.1,0.4,0.1,0.9,0.2,1.3c0,0.1,0,0.1-0.1,0.1c-0.5,0.3-1,0.5-1.5,0.6c-1,0.2-2,0.2-2.9,0
			c-1.5-0.3-2.4-1.3-2.8-2.7c-0.2-0.8-0.3-1.7-0.2-2.5c0.1-0.7,0.2-1.4,0.5-2c0.6-1.2,1.6-2,2.9-2.1c0.7-0.1,1.3,0,2,0.2
			c0.9,0.3,1.6,1,2,1.9c0.3,0.6,0.4,1.2,0.4,1.9C46.6,12.9,46.5,13.4,46.5,14.1C46.5,14,46.5,14.1,46.5,14.1z M41.6,12.3
			c0.7,0,1.4,0,2.2,0c0-0.2,0-0.4-0.1-0.7c0-0.3-0.1-0.6-0.3-0.9c-0.2-0.4-0.7-0.5-1.1-0.3c-0.2,0.1-0.4,0.3-0.5,0.6
			C41.7,11.4,41.6,11.8,41.6,12.3z"/>
		<path class="st0" d="M17.4,5.9c0,0.9,0,1.8,0,2.6c0.6,0,1.3,0,1.9,0c-0.1,0.7-0.2,1.5-0.4,2.2c-0.5,0-1,0-1.5,0c0,0.1,0,0.1,0,0.1
			c0,1.2,0,2.5,0,3.7c0,0.2,0,0.3,0.1,0.5c0.1,0.3,0.3,0.5,0.6,0.5c0.3,0,0.6,0,1-0.1c0,0,0,0,0.1,0c0,0,0,0.1,0,0.1
			c0,0.7,0,1.4,0,2.1c0,0.1,0,0.1-0.1,0.1c-0.9,0.2-1.9,0.3-2.8,0c-0.9-0.2-1.4-0.9-1.6-1.8c-0.1-0.3-0.1-0.7-0.1-1
			c0-1.4,0-2.8,0-4.2c0,0,0-0.1,0-0.1c-0.4,0-0.8,0-1.2,0c0.1-0.7,0.2-1.4,0.3-2.1c0.3,0,0.5-0.1,0.8-0.1c0.1,0,0.1,0,0.1-0.1
			c0.1-0.7,0.2-1.4,0.3-2.1c0-0.1,0-0.1,0.1-0.1C15.7,6.1,16.5,6,17.4,5.9C17.3,5.9,17.3,5.9,17.4,5.9z"/>
		<path class="st0" d="M22.8,9.5c0.1-0.3,0.3-0.5,0.5-0.7c0.4-0.3,0.9-0.5,1.4-0.4c0.1,0,0.2,0,0.3,0c0.1,0,0.1,0,0.1,0.1
			c0,0.5,0,1.1,0,1.6c0,0.3,0,0.7,0,1c-0.3,0-0.6,0-0.8,0c-0.3,0-0.7,0.1-1,0.3c-0.1,0.1-0.2,0.2-0.3,0.2c0,0,0,0.1,0,0.2
			c0,1.5,0,2.9,0,4.4c0,0.4,0,0.9,0,1.3c0,0,0,0.1,0,0.1c-1,0-2,0-2.9,0c0-3.1,0-6.2,0-9.3c0,0,0.1,0,0.1,0c0.8,0,1.6,0,2.4,0
			c0.1,0,0.1,0,0.1,0.1C22.7,8.9,22.7,9.2,22.8,9.5z"/>
		<path class="st0" d="M28.8,17.8c-1,0-2,0-3,0c0-3.1,0-6.2,0-9.3c1,0,2,0,3,0C28.8,11.6,28.8,14.7,28.8,17.8z"/>
	</g>
</g>
</svg>
